<svg width="48" height="48" viewBox="0 0 48 48" fill="none" xmlns="http://www.w3.org/2000/svg">
<path d="M33.8907 29.0859C31.2563 26.7938 27.8157 25.4062 24.047 25.4062C20.2782 25.4062 16.8376 26.7937 14.1985 29.0906C14.1257 29.1563 14.081 29.2477 14.074 29.3456C14.0671 29.4434 14.0982 29.5402 14.161 29.6156L15.8485 31.6266C15.9845 31.7859 16.2235 31.8047 16.3829 31.6687C18.4267 29.8687 21.1079 28.7812 24.047 28.7812C26.986 28.7812 29.6673 29.8687 31.711 31.6641C31.8704 31.8 32.1095 31.7812 32.2454 31.6219L33.9329 29.6109C34.0642 29.4563 34.0454 29.2219 33.8907 29.0859ZM39.3938 22.5187C35.236 19.0547 29.8876 16.9688 24.047 16.9688C18.2063 16.9688 12.8579 19.0547 8.6954 22.5187C8.61926 22.583 8.57159 22.6747 8.56281 22.7739C8.55403 22.8732 8.58484 22.9718 8.64853 23.0484L10.336 25.0594C10.4673 25.2187 10.7063 25.2375 10.861 25.1062C14.4376 22.1344 19.036 20.3438 24.047 20.3438C29.0579 20.3438 33.6563 22.1344 37.2282 25.1062C37.3876 25.2375 37.622 25.2187 37.7532 25.0594L39.4407 23.0484C39.572 22.8891 39.5532 22.65 39.3938 22.5187ZM44.8642 16.0031C39.1735 11.3344 31.8892 8.53125 23.9532 8.53125C16.0688 8.53125 8.83134 11.2969 3.15478 15.9094C3.11578 15.9407 3.08344 15.9795 3.05968 16.0235C3.03591 16.0676 3.02119 16.1159 3.01638 16.1657C3.01158 16.2155 3.01678 16.2657 3.0317 16.3135C3.04661 16.3613 3.07093 16.4055 3.10322 16.4437L4.79072 18.4547C4.92197 18.6094 5.15634 18.6328 5.31103 18.5062C10.4063 14.3766 16.8892 11.9062 23.9532 11.9062C31.0688 11.9062 37.5938 14.4141 42.7032 18.5953C42.8626 18.7266 43.097 18.7031 43.2282 18.5438L44.9157 16.5328C45.0517 16.3734 45.0282 16.1344 44.8642 16.0031ZM21.0001 36.4688C21.0001 37.2644 21.3162 38.0275 21.8788 38.5901C22.4414 39.1527 23.2044 39.4688 24.0001 39.4688C24.7957 39.4688 25.5588 39.1527 26.1214 38.5901C26.684 38.0275 27.0001 37.2644 27.0001 36.4688C27.0001 35.6731 26.684 34.91 26.1214 34.3474C25.5588 33.7848 24.7957 33.4688 24.0001 33.4688C23.2044 33.4688 22.4414 33.7848 21.8788 34.3474C21.3162 34.91 21.0001 35.6731 21.0001 36.4688Z" fill="black"/>
</svg>
