<svg width="48" height="48" viewBox="0 0 48 48" fill="none" xmlns="http://www.w3.org/2000/svg">
<path d="M42 20H14V14C14 11.794 15.794 10 18 10C20.206 10 22 11.794 22 14H26C26 9.588 22.412 6 18 6C13.588 6 10 9.588 10 14V20H6C5.46957 20 4.96086 20.2107 4.58579 20.5858C4.21071 20.9609 4 21.4696 4 22V26C4 31.212 7.348 35.646 12 37.3V44H16V38H32V44H36V37.3C40.652 35.646 44 31.212 44 26V22C44 21.4696 43.7893 20.9609 43.4142 20.5858C43.0391 20.2107 42.5304 20 42 20ZM40 26C40 30.412 36.412 34 32 34H16C11.588 34 8 30.412 8 26V24H40V26Z" fill="black"/>
</svg>
