<svg width="48" height="48" viewBox="0 0 48 48" fill="none" xmlns="http://www.w3.org/2000/svg">
<path d="M9 6C8.2155 6 7.4115 6.276 6.843 6.8445C6.276 7.41 6 8.214 6 9V25.5C6 29.685 8.478 33.1755 12 35.391V42H34.5V35.391C38.022 33.1755 40.5 29.6835 40.5 25.5V24H21V9C21 8.2155 20.724 7.4115 20.1555 6.843C19.59 6.276 18.786 6 18 6H9ZM9 9H18V24H9V9ZM12 12V16.5H15V12H12ZM9.468 27H37.0305C36.498 29.5905 34.98 31.875 32.2965 33.3285L31.5 33.75V39H15V33.75L14.2035 33.3285C11.5185 31.875 10.002 29.5905 9.4695 27H9.468Z" fill="black"/>
</svg>
