<svg width="30" height="20" viewBox="0 0 30 20" fill="none" xmlns="http://www.w3.org/2000/svg">
<path fill-rule="evenodd" clip-rule="evenodd" d="M16.292 4.19488C16.3849 4.1328 16.4952 4.08354 16.6167 4.04993C16.7382 4.01632 16.8685 3.99902 17 3.99902C17.1315 3.99902 17.2618 4.01632 17.3833 4.04993C17.5048 4.08354 17.6151 4.1328 17.708 4.19488L25.708 9.52821C25.8011 9.59014 25.875 9.66371 25.9254 9.7447C25.9758 9.8257 26.0018 9.91253 26.0018 10.0002C26.0018 10.0879 25.9758 10.1747 25.9254 10.2557C25.875 10.3367 25.8011 10.4103 25.708 10.4722L17.708 15.8055C17.5202 15.9307 17.2656 16.0011 17 16.0011C16.7344 16.0011 16.4798 15.9307 16.292 15.8055C16.1042 15.6804 15.9987 15.5106 15.9987 15.3335C15.9987 15.1565 16.1042 14.9867 16.292 14.8615L22.586 10.6669H5C4.73478 10.6669 4.48043 10.5966 4.29289 10.4716C4.10536 10.3466 4 10.177 4 10.0002C4 9.8234 4.10536 9.65384 4.29289 9.52881C4.48043 9.40379 4.73478 9.33355 5 9.33355H22.586L16.292 5.13888C16.1989 5.07695 16.125 5.00339 16.0746 4.92239C16.0242 4.8414 15.9982 4.75457 15.9982 4.66688C15.9982 4.57919 16.0242 4.49236 16.0746 4.41137C16.125 4.33038 16.1989 4.25681 16.292 4.19488Z" fill="black"/>
</svg>
