<svg width="48" height="48" viewBox="0 0 48 48" fill="none" xmlns="http://www.w3.org/2000/svg">
<path d="M41.1429 44.1733V48H36.5714V44.94L19.616 47.7773C19.4523 47.8047 19.2847 47.7959 19.1248 47.7516C18.9649 47.7073 18.8165 47.6286 18.6899 47.5209C18.5633 47.4132 18.4616 47.2791 18.3918 47.128C18.322 46.9768 18.2858 46.8122 18.2857 46.6456V43.4088H9.14286V48H4.57143V43.4088H2.28571C1.67951 43.4088 1.09812 43.167 0.66947 42.7365C0.240816 42.306 0 41.7221 0 41.1133V6.6796C0 6.07078 0.240816 5.48689 0.66947 5.05638C1.09812 4.62588 1.67951 4.38403 2.28571 4.38403H18.2857V1.14726C18.2858 0.980648 18.322 0.81605 18.3918 0.6649C18.4616 0.51375 18.5633 0.379673 18.6899 0.271982C18.8165 0.164292 18.9649 0.0855699 19.1248 0.0412856C19.2847 -0.00299871 19.4523 -0.0117837 19.616 0.0155408L43.8034 4.06494C44.3371 4.15405 44.8221 4.43042 45.172 4.84488C45.5219 5.25933 45.714 5.785 45.7143 6.32838V11.2708H48V15.8619H45.7143V31.931H48V36.5221H45.7143V41.4645C45.714 42.0079 45.5219 42.5335 45.172 42.948C44.8221 43.3624 44.3371 43.6388 43.8034 43.7279L41.1429 44.1733ZM4.57143 8.97518V38.8177H18.2857V8.97518H4.57143ZM22.8571 42.5824L41.1429 39.5201V8.27273L22.8571 5.21273V42.5801V42.5824ZM33.1429 29.6354C31.2503 29.6354 29.7143 27.0643 29.7143 23.8964C29.7143 20.7285 31.2503 18.1575 33.1429 18.1575C35.0354 18.1575 36.5714 20.7285 36.5714 23.8964C36.5714 27.0643 35.0354 29.6354 33.1429 29.6354Z" fill="black"/>
</svg>
