<svg width="43" height="44" viewBox="0 0 43 44" fill="none" xmlns="http://www.w3.org/2000/svg">
<path d="M25.1709 18V20H7.1709V18C7.1709 14.686 11.2009 12 16.1709 12C21.1409 12 25.1709 14.686 25.1709 18Z" stroke="black" stroke-width="4" stroke-linecap="round" stroke-linejoin="round"/>
<path d="M5.513 33.06L4.829 34.94M40.171 42V10.5C40.171 5.806 34.798 2 28.171 2C21.544 2 16.171 5.806 16.171 10.5V12L40.171 42ZM16.171 27V26V27ZM8.341 26.03L8 26.97L8.341 26.03ZM2.341 41.03L2 41.97L2.341 41.03ZM16.171 42V41V42ZM16.171 35V33V35Z" stroke="black" stroke-width="4" stroke-linecap="round" stroke-linejoin="round"/>
</svg>
