<svg width="48" height="48" viewBox="0 0 48 48" fill="none" xmlns="http://www.w3.org/2000/svg">
<g clip-path="url(#clip0_325_499)">
<path d="M13.18 1.31989C17.86 -2.30011 22.94 2.11989 24.08 8.99989C24.94 8.99989 25.78 9.23989 26.54 9.67989C27.58 8.47989 28.5 6.83989 28.14 4.99989C27.3 0.699888 32.12 -2.78011 36.7 3.15989C40.32 7.83989 35.9 12.9199 29 14.0599C29 14.9199 28.78 15.7799 28.32 16.5399C29.52 17.5599 31.16 18.4799 33 18.1199C37.26 17.2799 40.76 22.0799 34.82 26.6799C30.14 30.2999 25.06 25.8799 23.92 18.9999C23.06 18.9999 22.22 18.7399 21.48 18.2999C20.44 19.4999 19.5 21.1599 19.86 22.9999C20.7 27.2799 15.88 30.7799 11.3 24.8399C7.66 20.1399 12.1 15.0599 19 13.9399C19 13.0799 19.26 12.2399 19.7 11.4799C18.5 10.4599 16.86 9.51989 15 9.87989C10.74 10.7199 7.24 5.91989 13.18 1.31989ZM10 31.9999H14C15.0609 31.9999 16.0783 32.4213 16.8284 33.1715C17.5786 33.9216 18 34.939 18 35.9999V47.9999H14V43.9999H10V47.9999H6V35.9999C6 34.939 6.42143 33.9216 7.17157 33.1715C7.92172 32.4213 8.93913 31.9999 10 31.9999ZM10 35.9999V39.9999H14V35.9999H10ZM25.86 31.9999H30L24.14 47.9999H20L25.86 31.9999ZM36 31.9999H42V35.9999H36V43.9999H42V47.9999H36C34.9391 47.9999 33.9217 47.5785 33.1716 46.8283C32.4214 46.0782 32 45.0608 32 43.9999V35.9999C32 34.939 32.4214 33.9216 33.1716 33.1715C33.9217 32.4213 34.9391 31.9999 36 31.9999Z" fill="black"/>
</g>
<defs>
<clipPath id="clip0_325_499">
<rect width="48" height="48" fill="white"/>
</clipPath>
</defs>
</svg>
