<svg width="30" height="20" viewBox="0 0 30 20" fill="none" xmlns="http://www.w3.org/2000/svg">
<path fill-rule="evenodd" clip-rule="evenodd" d="M13.7078 4.19488C13.801 4.25681 13.8748 4.33038 13.9253 4.41137C13.9757 4.49236 14.0016 4.57919 14.0016 4.66688C14.0016 4.75457 13.9757 4.8414 13.9253 4.92239C13.8748 5.00339 13.801 5.07695 13.7078 5.13888L7.41383 9.33355H24.9998C25.2651 9.33355 25.5194 9.40379 25.7069 9.52881C25.8945 9.65384 25.9998 9.8234 25.9998 10.0002C25.9998 10.177 25.8945 10.3466 25.7069 10.4716C25.5194 10.5966 25.2651 10.6669 24.9998 10.6669H7.41383L13.7078 14.8615C13.8956 14.9867 14.0011 15.1565 14.0011 15.3335C14.0011 15.5106 13.8956 15.6804 13.7078 15.8055C13.5201 15.9307 13.2654 16.0011 12.9998 16.0011C12.7343 16.0011 12.4796 15.9307 12.2918 15.8055L4.29183 10.4722C4.19871 10.4103 4.12482 10.3367 4.07441 10.2557C4.024 10.1747 3.99805 10.0879 3.99805 10.0002C3.99805 9.91253 4.024 9.8257 4.07441 9.7447C4.12482 9.66371 4.19871 9.59014 4.29183 9.52821L12.2918 4.19488C12.3847 4.1328 12.4951 4.08354 12.6166 4.04993C12.7381 4.01632 12.8683 3.99902 12.9998 3.99902C13.1314 3.99902 13.2616 4.01632 13.3831 4.04993C13.5046 4.08354 13.6149 4.1328 13.7078 4.19488Z" fill="black"/>
</svg>
