<svg width="48" height="48" viewBox="0 0 48 48" fill="none" xmlns="http://www.w3.org/2000/svg">
<path d="M34 6H14C9.58172 6 6 9.58172 6 14V34C6 38.4183 9.58172 42 14 42H34C38.4183 42 42 38.4183 42 34V14C42 9.58172 38.4183 6 34 6Z" stroke="black" stroke-width="2" stroke-linecap="round" stroke-linejoin="round"/>
<path d="M23.9997 14C27.9117 14 31.4477 15.604 33.9877 18.19L28.0757 23.998C26.9668 22.971 25.5112 22.4003 23.9997 22.4C22.4885 22.3997 21.0329 22.9697 19.9237 23.996L14.0117 18.19C15.3134 16.8613 16.8675 15.8062 18.5827 15.0867C20.2979 14.3672 22.1397 13.9977 23.9997 14V14Z" stroke="black" stroke-width="2" stroke-linecap="round" stroke-linejoin="round"/>
</svg>
